<svg width="1920" height="1236" viewBox="0 0 1920 1236" fill="none" xmlns="http://www.w3.org/2000/svg">
<path opacity="0.16" d="M-75.5289 144.807L139.766 -230.888C181.891 -304.397 272.544 -334.488 350.265 -300.76C444.226 -259.984 479.348 -144.78 424.115 -58.5204L136.894 390.043C113.525 426.54 99.2308 468.1 95.2061 511.25C76.8331 708.233 268.523 858.11 455.257 792.766L460.503 790.931C535.953 764.529 619.156 772.249 688.459 812.083L757.749 851.909C881.688 923.146 1039.99 868.137 1093.04 735.394C1142.04 612.818 1282.36 554.637 1403.71 606.583L1716.73 740.57C1765.43 761.419 1822 749.063 1857.58 709.806C1903.45 659.19 1985.05 666.719 2020.89 724.874L2025.92 733.038C2056.13 782.078 2043.3 846.136 1996.53 879.753L1917.31 936.682C1852.7 983.114 1767.7 989.968 1696.49 954.487L1600.6 906.713C1491.73 852.467 1360.52 912.127 1329.83 1029.83C1300.54 1142.19 1202.02 1222.76 1086.09 1229.18L988.517 1234.58C924.994 1238.09 862.098 1220.45 809.676 1184.4L704.903 1112.35C618.808 1053.15 503.799 1058.63 423.728 1125.76C343.294 1193.19 227.66 1198.39 141.502 1138.44L79.0168 1094.97C31.2014 1061.7 -7.02295 1016.44 -31.8204 963.733L-99.2868 820.329C-139.269 735.344 -160 642.582 -160 548.662V462.102C-160 350.78 -130.879 241.394 -75.5289 144.807Z" fill="#CBBDFF"/>
</svg>
